<svg xmlns="http://www.w3.org/2000/svg" viewBox="0 0 720 520"><defs><linearGradient id="g" x1="0" y1="0" x2="1" y2="1"><stop stop-color="#eef8f0"/><stop offset="1" stop-color="#cfe7d5"/></linearGradient><filter id="s"><feDropShadow dx="0" dy="18" stdDeviation="18" flood-opacity=".14"/></filter></defs><rect width="720" height="520" rx="42" fill="url(#g)"/><circle cx="105" cy="105" r="62" fill="#d8ecdd"/><circle cx="625" cy="410" r="72" fill="#d8ecdd"/><circle cx="250" cy="178" r="54" fill="#f1c7a9"/><path d="M196 174c8-66 108-82 128-2-28-16-74-20-128 2z" fill="#26382e"/><path d="M194 232c31-34 94-34 126 0l35 119H158l36-119z" fill="#17603d"/><rect x="185" y="282" width="145" height="92" rx="8" fill="#dce5df" filter="url(#s)"/><rect x="171" y="374" width="175" height="16" rx="8" fill="#73847a"/><rect x="211" y="299" width="95" height="60" rx="7" fill="#174d35"/><polyline points="222,344 242,331 258,338 278,316 296,324" fill="none" stroke="#9bd0a9" stroke-width="6"/><rect x="445" y="72" width="208" height="300" rx="28" fill="white" filter="url(#s)"/><rect x="465" y="105" width="168" height="72" rx="16" fill="#edf6ef"/><text x="482" y="130" font-family="Arial" font-size="11" fill="#6c7b72">MONTHLY SPENDING</text><text x="482" y="157" font-family="Arial" font-size="24" font-weight="700" fill="#173d2b">₹24,580</text><polyline points="480,230 505,213 531,220 557,190 582,201 610,169" fill="none" stroke="#2b9b62" stroke-width="7" stroke-linecap="round"/><rect x="470" y="254" width="158" height="30" rx="10" fill="#f4f7f4"/><circle cx="488" cy="269" r="8" fill="#174d35"/><text x="503" y="273" font-family="Arial" font-size="11" fill="#3d4d44">Food</text><text x="605" y="273" text-anchor="end" font-family="Arial" font-size="11" fill="#174d35">32%</text><rect x="470" y="294" width="158" height="30" rx="10" fill="#f4f7f4"/><circle cx="488" cy="309" r="8" fill="#6eb184"/><text x="503" y="313" font-family="Arial" font-size="11" fill="#3d4d44">Shopping</text><text x="605" y="313" text-anchor="end" font-family="Arial" font-size="11" fill="#174d35">24%</text><ellipse cx="150" cy="425" rx="62" ry="43" fill="#f4a9a1"/><circle cx="205" cy="414" r="27" fill="#f4a9a1"/><circle cx="214" cy="408" r="4" fill="#173d2b"/><path d="M223 421l19-7-16 16" fill="#f4a9a1"/><rect x="112" y="459" width="18" height="19" rx="5" fill="#d88982"/><rect x="171" y="459" width="18" height="19" rx="5" fill="#d88982"/><circle cx="235" cy="444" r="18" fill="#e5b94f"/><text x="235" y="451" text-anchor="middle" font-family="Arial" font-size="17" font-weight="700" fill="#805d10">₹</text></svg>